<svg xmlns="http://www.w3.org/2000/svg" xmlns:xlink="http://www.w3.org/1999/xlink" width="500" zoomAndPan="magnify" viewBox="0 0 375 468.749983" height="625" preserveAspectRatio="xMidYMid meet" version="1.2"><g id="31c9b48aab"><path style=" stroke:none;fill-rule:nonzero;fill:#000000;fill-opacity:1;" d="M 302.9375 90.625 L 233.898438 90.625 L 233.898438 22.488281 Z M 302.9375 90.625 "/><path style=" stroke:none;fill-rule:nonzero;fill:#000000;fill-opacity:1;" d="M 302.9375 98.121094 L 233.898438 98.121094 C 229.777344 98.121094 226.402344 94.75 226.402344 90.625 L 226.402344 22.488281 C 226.402344 19.488281 228.203125 16.714844 230.976562 15.589844 C 233.75 14.390625 236.972656 15.066406 239.148438 17.164062 L 308.1875 85.304688 C 310.359375 87.402344 311.035156 90.703125 309.835938 93.476562 C 308.710938 96.25 306.011719 98.121094 302.9375 98.121094 Z M 241.394531 83.128906 L 284.648438 83.128906 L 241.394531 40.402344 Z M 241.394531 83.128906 "/><path style=" stroke:none;fill-rule:nonzero;fill:#000000;fill-opacity:1;" d="M 152.867188 178.105469 L 166.886719 178.105469 C 175.132812 178.105469 181.878906 171.359375 181.878906 163.113281 C 181.878906 154.867188 175.132812 148.121094 166.886719 148.121094 L 152.867188 148.121094 C 126.332031 148.121094 104.742188 169.710938 104.742188 196.246094 L 104.742188 218.359375 C 104.742188 244.894531 126.332031 266.484375 152.867188 266.484375 L 166.886719 266.484375 C 175.132812 266.484375 181.878906 259.738281 181.878906 251.492188 C 181.878906 243.246094 175.132812 236.5 166.886719 236.5 L 152.867188 236.5 C 142.824219 236.5 134.726562 228.328125 134.726562 218.359375 L 134.726562 196.246094 C 134.652344 186.277344 142.824219 178.105469 152.867188 178.105469 Z M 152.867188 178.105469 "/><path style=" stroke:none;fill-rule:nonzero;fill:#000000;fill-opacity:1;" d="M 261.484375 148.496094 C 253.390625 146.773438 245.445312 151.945312 243.71875 160.039062 L 230.378906 221.882812 L 218.683594 160.039062 C 217.109375 151.867188 209.3125 146.546875 201.144531 148.121094 C 192.972656 149.695312 187.648438 157.492188 189.222656 165.660156 L 203.992188 244.070312 C 206.390625 256.664062 216.960938 265.582031 229.777344 265.734375 C 229.925781 265.734375 230.003906 265.734375 230.152344 265.734375 C 242.820312 265.734375 253.464844 257.113281 256.164062 244.746094 L 272.953125 166.484375 C 274.753906 158.164062 269.582031 150.21875 261.484375 148.496094 Z M 261.484375 148.496094 "/><path style=" stroke:none;fill-rule:nonzero;fill:#000000;fill-opacity:1;" d="M 313.359375 79.234375 L 272.128906 39.203125 L 244.394531 11.84375 C 241.472656 8.921875 237.5 7.421875 233.527344 7.496094 C 233.449219 7.496094 233.449219 7.496094 233.375 7.496094 L 72.0625 7.496094 C 63.816406 7.496094 57.070312 14.242188 57.070312 22.488281 L 57.070312 354.5625 C 57.070312 362.804688 63.816406 369.554688 72.0625 369.554688 L 302.9375 369.554688 C 311.183594 369.554688 317.929688 362.804688 317.929688 354.5625 L 317.929688 89.953125 C 317.929688 85.902344 316.28125 82.007812 313.359375 79.234375 Z M 266.433594 75.632812 L 248.96875 75.632812 L 248.96875 58.394531 L 251.214844 60.644531 Z M 210.738281 339.570312 C 142.449219 339.570312 87.054688 284.171875 87.054688 215.886719 L 87.054688 37.480469 L 218.910156 37.480469 L 218.910156 90.625 C 218.910156 98.871094 225.65625 105.617188 233.898438 105.617188 L 287.945312 105.617188 L 287.945312 339.570312 Z M 210.738281 339.570312 "/></g></svg>